PathFileType	4	(X/Y/Z)	C:\Users\°ÂÌØÂü\Desktop\20210112\bx_y_5_502-Unnamed.trc
DataRate	CameraRate	NumFrames	NumMarkers	Units	OrigDataRate	OrigDataStartFrame	OrigNumFrames
50.00	50.00	       6	0	mm	50.00	224	       447
Frame#	Time	
		

224	4.460	-572.01910	273.55719	1481.02405	-775.52405	-64.93938	701.42938	-791.98108	268.25717	743.13513	-695.27954	205.02959	823.25439	-755.92346	270.22079	874.88428	-902.38519	80.40767	1061.04797	-759.92218	138.72488	570.17401	-804.90997	244.53810	631.56000	-676.97736	176.30469	160.06494	-542.03851	-76.68735	1478.39001	-798.50647	241.69705	570.80396	-828.73865	252.55525	493.31961	-737.77155	201.49971	536.25891	-753.89758	-80.01449	854.62225	-717.19513	155.73936	219.31941	-775.76782	224.83557	201.85602	-882.79572	295.99142	144.52548	-677.08130	52.08374	162.61458	-724.00006	71.03371	220.36909	-595.96899	225.15692	174.02037	-667.56445	301.21579	157.86906	-629.56415	308.64960	160.89520	-562.21027	261.47739	165.37123	-528.01489	303.59164	146.17735	-411.96216	112.95308	1749.47961	-690.64935	-16.57359	804.73901	-517.71558	-73.05201	142.64056	-562.94763	-40.57952	163.21393	-604.45624	17.12342	168.35016	-699.74841	-19.60046	1040.00745	-763.44904	69.38142	571.11633	-797.10492	52.24067	173.65408	-798.43506	174.49794	182.07596	-822.12262	-43.72514	478.04199	-667.17542	-70.37997	159.47130	-774.01251	-10.13572	201.83513	-875.99298	-78.87768	141.19183	-781.62231	-38.21677	609.86127	-624.87952	-80.94009	158.14311	-701.82184	204.71315	1052.98010				-788.57098	-35.53178	561.98737							-730.84943	7.43836	524.95251	
225	4.480	-565.66138	274.16623	1474.83618	-778.38586	-65.41028	701.41132	-796.27142	268.74265	743.54706	-699.20178	205.10876	822.95319	-759.94196	269.77023	874.43158	-905.41199	79.34759	1061.49768	-762.23969	138.85530	569.45691	-807.49384	244.73282	631.52472	-676.73157	176.03404	160.90367	-535.18958	-76.19908	1471.41638	-800.41858	241.09406	570.32141	-830.23840	252.47322	492.96118	-740.07727	201.26950	536.12500	-757.52075	-80.04155	853.42096	-717.52222	155.94386	219.53680	-775.94263	225.15425	201.66315	-882.73950	296.02512	144.52783	-677.08130	52.08374	162.61458	-724.46527	70.52135	220.79684	-596.14868	225.21912	174.03751	-667.66040	301.28076	157.82976	-629.54694	308.70572	160.80954	-562.53021	261.28601	165.64568	-528.12317	303.84021	146.27182	-399.57285	113.92011	1739.24207	-693.90601	-16.91344	804.72479	-517.78070	-73.21063	142.81830	-563.00818	-40.52893	163.33603	-604.66772	17.13281	168.62230	-703.07971	-19.60270	1040.13171	-766.06372	68.96609	570.62317	-797.12238	52.23709	173.49193	-798.71619	174.71437	182.12808	-823.85437	-44.27701	477.84351	-666.95105	-70.36940	159.35530	-774.07727	-10.36964	201.50346	-875.99457	-78.94872	141.12155	-784.00793	-38.86639	609.97479	-625.00354	-81.16013	157.89452	-706.22058	204.87457	1051.76379				-790.32513	-36.02180	562.04767							-732.95337	7.56165	524.81110	
226	4.500	-558.56677	274.02136	1467.57007	-780.99774	-65.80508	700.24304	-799.43463	268.95566	742.49121	-703.56226	204.80109	822.47711	-763.48425	270.54807	874.49957				-764.40942	138.65204	569.15613	-809.81732	244.64757	630.88348	-677.06250	176.33858	160.70595	-528.31635	-75.13203	1464.40930	-802.40405	241.17287	569.90546	-831.72614	252.83553	492.34070	-741.94110	201.43443	536.14124	-760.83356	-80.21356	853.19415	-717.84247	156.18297	219.43428	-775.96027	225.22026	201.55937	-882.66974	296.07538	144.66028	-677.12787	52.21818	162.85362	-724.49744	70.13776	220.24532	-596.45502	225.17705	173.89420	-667.64423	301.19006	157.94455	-629.63196	308.67615	160.89670	-562.74329	261.24716	165.70215	-528.10571	303.89670	146.22444	-387.56595	114.89127	1728.62329	-697.52924	-17.53298	804.95605	-517.89032	-73.14731	142.84787	-562.94727	-40.37414	163.39108	-604.62775	17.12180	168.68423	-706.51807	-19.63746	1038.60278	-767.32941	68.82065	570.10895	-797.16968	52.15260	173.38745	-798.69080	174.59204	181.82828	-826.14954	-44.48772	477.21896	-666.72595	-70.44990	159.42345	-774.35620	-10.54103	201.24492	-875.97748	-78.88188	141.21204	-786.30719	-39.61886	609.89819	-624.63751	-80.93292	158.00520	-710.02460	203.77026	1050.74939				-791.58801	-36.16484	561.76593							-734.95569	7.13850	524.51343	
227	4.520	-552.49298	274.23007	1460.41748	-784.04907	-66.51546	700.01941	-803.54681	270.00845	742.50055	-706.96820	204.57419	822.43512	-767.62927	270.15607	873.63861	-912.89185	78.75799	1061.93799	-766.37274	138.52113	568.46729	-812.62451	244.71710	630.31860	-676.77075	176.14653	160.99701	-521.65607	-74.21828	1456.06812	-804.70581	240.86736	569.36053	-833.66840	252.68793	491.72519	-743.77124	201.13837	535.77472	-764.64227	-80.57214	852.77405	-717.91797	156.06058	219.56175	-776.15479	225.37846	201.38452	-882.64795	295.87964	144.39232	-676.99561	52.29231	162.99364	-725.09088	70.24303	220.39627	-596.56750	225.29201	173.81676	-667.57269	301.26080	157.81041	-629.63647	308.62366	160.71674	-562.24316	261.15057	165.81021	-528.01721	303.92078	146.36935	-375.51062	115.94423	1717.79358	-701.33032	-16.89080	803.99841	-518.01379	-73.11990	142.65309	-562.96289	-40.27003	163.20547	-604.70111	17.17239	168.63060	-710.17737	-19.88127	1037.50000	-769.94916	68.45634	570.18091	-797.38129	52.04688	173.34802	-798.82458	174.76315	182.09155	-827.60400	-44.71950	476.39584	-667.23395	-70.48248	159.18233	-774.54523	-10.47413	201.14159	-876.08313	-78.64148	140.81920	-788.95612	-40.01076	609.09796	-624.76868	-81.17149	158.15172	-713.86169	203.01451	1049.13245				-794.39203	-36.66853	561.78717							-737.08801	6.89923	524.28149	
228	4.540	-545.43872	273.95508	1452.60156	-787.29108	-67.44408	699.94629	-807.25787	269.72992	742.31482	-711.04529	204.55663	821.84967	-771.43884	270.57202	873.67926	-913.87006	78.61537	1061.72144	-769.32092	138.70097	568.49133	-815.62958	244.27287	629.89948	-676.84125	176.01569	161.10252	-514.75568	-73.45560	1448.35571	-807.33881	241.00240	568.81714	-835.63025	252.65494	491.37744	-746.04260	201.00142	535.88470	-768.65997	-80.95747	852.60828	-718.38989	156.43115	220.01680	-776.60205	225.46596	201.32071	-882.76959	296.10699	144.51752	-677.21753	52.26809	163.15343				-596.76947	225.27423	173.81650	-667.68127	301.36392	157.72443	-629.52838	308.63254	160.70189	-562.26788	261.01788	165.72865	-528.05493	303.86139	146.26524	-363.73041	117.21475	1706.34241	-705.50293	-17.18059	803.55377	-518.05566	-73.30416	142.62596	-563.18091	-40.29612	163.10553	-604.94324	17.03227	168.44774	-713.63690	-20.87011	1037.79700	-772.60272	68.59815	569.30042	-797.72723	51.79586	173.18871	-798.80609	174.64223	181.77869	-829.40515	-44.74268	475.70947	-667.16663	-70.63189	159.21149	-774.21820	-10.90905	201.30836	-876.05652	-78.57231	140.90112	-791.85925	-39.83819	608.87445	-624.93201	-81.20164	157.90500	-718.21173	202.97018	1047.38489	-725.34686	70.06792	220.52629	-796.92603	-36.53595	561.13348							-739.32074	6.57810	524.33453	
229	4.560	-538.75867	274.05713	1444.90918	-790.75537	-67.94624	699.69794	-810.77716	269.61218	741.52283	-714.62262	204.99207	820.63153	-775.42230	269.86472	872.52783				-771.66290	137.96841	568.37054	-818.58313	243.38503	628.92566	-676.90546	176.13147	161.07935	-507.93387	-73.10884	1440.43616	-809.77765	240.72868	568.68909	-837.85327	252.88342	491.08780	-748.30426	200.79926	535.73157	-772.38190	-81.36094	852.24622	-718.47272	156.42099	220.09789	-776.52936	225.42863	201.11383	-882.74170	295.98346	144.42685	-677.33600	51.99681	163.09033				-596.92639	225.28639	173.63927	-667.79608	301.43137	157.69183	-629.54694	308.70572	160.80954	-562.26788	261.01788	165.72865	-528.12164	303.82550	146.26030	-352.53183	118.01323	1694.36414	-709.29272	-17.44851	802.81140	-518.11743	-73.33016	142.50899	-563.33978	-40.37247	163.02760	-604.59680	17.40424	168.71782	-716.40137	-20.29203	1037.11353	-775.06555	68.22879	569.31372	-797.71484	51.41980	173.20731	-798.80609	174.64223	181.77869	-831.49860	-45.46561	475.83710	-666.98792	-70.61633	158.84798	-774.19556	-11.47128	201.32773	-876.14270	-78.65091	140.78102	-794.11017	-40.12884	608.05573	-624.66937	-81.14384	157.86673	-721.57062	202.41469	1045.37866	-726.12177	70.38776	221.10225	-799.15399	-37.01030	560.92706							-741.62225	7.01473	524.26709	
